<svg viewBox="0 0 42 41" fill="none" xmlns="http://www.w3.org/2000/svg">
<path fill-rule="evenodd" clip-rule="evenodd" d="M21 1C16.2517 0.997569 11.6576 2.681 8.04035 5.74885C4.42307 8.8167 2.01886 13.0686 1.2582 17.7432C0.497552 22.4178 1.43014 27.2099 3.88898 31.2612C6.34783 35.3126 10.1723 38.3587 14.6777 39.854C15.6818 40.0395 16.0444 39.4275 16.0444 38.9267C16.0444 38.426 16.0444 37.202 16.0444 35.5421C10.4659 36.7476 9.313 32.8714 9.313 32.8714C8.94401 31.645 8.14119 30.5939 7.05371 29.9133C5.24069 28.68 7.19317 28.6986 7.19317 28.6986C7.82647 28.787 8.43119 29.0184 8.96128 29.3751C9.49136 29.7319 9.93283 30.2046 10.2521 30.7572C12.0372 33.808 14.9008 32.9271 16.0723 32.4171C16.1648 31.4041 16.6164 30.4571 17.3461 29.7464C12.9018 29.2457 8.23449 27.5394 8.23449 19.8985C8.20503 17.9162 8.94453 15.9993 10.2985 14.5479C9.68338 12.8291 9.75327 10.9404 10.4938 9.27156C10.4938 9.27156 12.1673 8.73372 15.9886 11.3116C19.2636 10.4214 22.7178 10.4214 25.9928 11.3116C29.814 8.73372 31.4876 9.27156 31.4876 9.27156C32.2225 10.9417 32.2923 12.8283 31.6828 14.5479C33.0343 16.0002 33.7705 17.9173 33.7376 19.8985C33.7376 27.558 29.0888 29.2364 24.6167 29.7372C25.0966 30.2221 25.4662 30.8043 25.7004 31.4444C25.9346 32.0844 26.028 32.7672 25.9742 33.4464C25.9742 36.1077 25.9742 38.2591 25.9742 38.9175C25.9742 39.5759 26.3368 40.0673 27.3502 39.8448C31.8509 38.3436 35.6694 35.2943 38.1224 31.2424C40.5755 27.1905 41.5031 22.4003 40.7394 17.7287C39.9757 13.0572 37.5705 8.80898 33.954 5.74409C30.3376 2.6792 25.7457 0.997565 21 1Z" stroke="#1002C9" stroke-width="2" stroke-linecap="round" stroke-linejoin="round"/>
</svg>
