<svg viewBox="0 0 42 42" fill="none" xmlns="http://www.w3.org/2000/svg">
<path d="M1.12989 12.0413C1.22836 9.88977 1.56524 8.50213 2.02084 7.32425L2.02697 7.30798C2.47844 6.10937 3.1857 5.02356 4.09951 4.12608L4.11233 4.11349L4.12492 4.10067C5.02313 3.18568 6.10934 2.47912 7.3069 2.02884L7.32755 2.02095C8.50275 1.56392 9.88767 1.22827 12.041 1.12983M1.12989 12.0413C1.02638 14.3402 1 15.0528 1 21.0133C1 26.9749 1.02493 27.6859 1.12983 29.9853M1.12989 12.0413V12.6212M12.041 1.12983C14.3404 1.02493 15.0528 1 21.0131 1C26.9735 1 27.6855 1.02636 29.9842 1.12985M12.041 1.12983H12.6224M1.12983 29.9853C1.22827 32.1387 1.56392 33.5236 2.02095 34.6987L2.02884 34.7196M1.12983 29.9853L1.16509 30.1709M1.12983 29.9853V29.404M1.12989 12.6212C1.13794 12.437 1.14661 12.2449 1.15589 12.0407C1.26379 9.68661 1.66398 8.31116 2.04543 7.33558C2.53911 6.06152 3.16448 5.10013 4.11989 4.14076C5.02801 3.20918 6.13199 2.49131 7.3518 2.03912C8.32306 1.6624 9.69487 1.26341 12.0401 1.15592C12.245 1.14661 12.4376 1.13792 12.6224 1.12983M1.12989 12.6212C1.04469 14.5693 1.02638 15.644 1.02638 21.0133C1.02638 26.3806 1.04469 27.4568 1.12983 29.404M1.12989 12.6212L1.12983 29.404M2.02884 34.7196C2.47911 35.9171 3.18568 37.0032 4.10067 37.9015L4.11347 37.9141L4.12604 37.9267C5.02355 38.8406 6.1094 39.548 7.30801 39.9994L7.32591 40.0061C8.50218 40.4623 9.88778 40.7981 12.041 40.8966M2.02884 34.7196L2.00185 34.5773M2.00185 34.5773L1.16509 30.1709M2.00185 34.5773C1.64646 33.6385 1.28053 32.3284 1.16509 30.1709M2.00185 34.5773C2.01431 34.6103 2.02676 34.6427 2.0392 34.6747C2.48987 35.8897 3.20395 36.9899 4.13014 37.896C5.03602 38.8221 6.13572 39.536 7.35028 39.9867C8.32498 40.3663 9.69841 40.7632 12.0407 40.8705C14.4045 40.9781 15.1348 41 21.0131 41C26.8916 41 27.6225 40.9781 29.9863 40.8705C32.3314 40.7629 33.7032 40.364 34.6745 39.9874C35.8897 39.5368 36.9901 38.8225 37.8962 37.896C38.8221 36.9901 39.536 35.8905 39.9867 34.676C40.3663 33.7013 40.7632 32.328 40.8703 29.9857C40.9779 27.6219 41 26.8901 41 21.0133C41 15.1363 40.9779 14.4039 40.8703 12.0401C40.7623 9.68267 40.3598 8.3088 39.9813 7.33667C39.4865 6.05941 38.8592 5.09341 37.8947 4.12899C36.9322 3.1684 35.9689 2.54061 34.6905 2.04535C33.715 1.66394 32.3402 1.26381 29.9863 1.15592C29.7815 1.14661 29.5891 1.13794 29.4044 1.12985M1.16509 30.1709C1.16183 30.1101 1.15878 30.0486 1.15592 29.9863C1.14661 29.7815 1.13792 29.5888 1.12983 29.404M29.4044 1.12985H29.9842M29.4044 1.12985L12.6224 1.12983M29.4044 1.12985C27.4571 1.04472 26.3811 1.02638 21.0131 1.02638C15.6456 1.02638 14.5695 1.04469 12.6224 1.12983M29.9842 1.12985C32.1362 1.22829 33.524 1.56514 34.7021 2.02078L34.7183 2.02697C35.9169 2.47844 37.0027 3.18571 37.9002 4.09952L37.9126 4.11221L37.9255 4.12467C38.8394 5.02221 39.5465 6.10834 39.9977 7.30728L40.0053 7.32756C40.4623 8.50276 40.7981 9.88768 40.8964 12.0411M40.8964 29.9853C40.7981 32.1385 40.4623 33.5242 40.0061 34.7004L39.9994 34.7183C39.5478 35.9171 38.8406 37.0027 37.9267 37.9002L37.9139 37.9128L37.9015 37.9257C37.0032 38.8406 35.9171 39.5472 34.7194 39.9975L34.6988 40.0055C33.5236 40.4625 32.1385 40.7981 29.9853 40.8966M17.4537 29.6065C18.5821 30.0739 19.7916 30.3145 21.0131 30.3145C23.48 30.3145 25.8459 29.3345 27.5903 27.5903C29.3345 25.8459 30.3145 23.48 30.3145 21.0133C30.3145 18.5463 29.3345 16.1805 27.5903 14.4361C25.8459 12.6918 23.48 11.7118 21.0131 11.7118C19.7916 11.7118 18.5821 11.9524 17.4537 12.4198C16.3251 12.8873 15.2998 13.5724 14.4361 14.4361C13.5724 15.2998 12.8873 16.3252 12.4198 17.4537C11.9524 18.5821 11.7118 19.7918 11.7118 21.0133C11.7118 22.2347 11.9524 23.4442 12.4198 24.5726C12.8873 25.7013 13.5724 26.7265 14.4361 27.5903C15.2998 28.4539 16.3251 29.1392 17.4537 29.6065ZM14.4154 14.4154C16.1653 12.6655 18.5386 11.6825 21.0131 11.6825C23.4878 11.6825 25.8611 12.6655 27.611 14.4154C29.3609 16.1652 30.3438 18.5385 30.3438 21.0133C30.3438 23.4878 29.3609 25.8611 27.611 27.6109C25.8611 29.3608 23.4878 30.3438 21.0131 30.3438C18.5386 30.3438 16.1653 29.3608 14.4154 27.6109C12.6655 25.8611 11.6825 23.4878 11.6825 21.0133C11.6825 18.5385 12.6655 16.1652 14.4154 14.4154ZM35.5979 9.51008C35.5979 10.2184 35.3164 10.8977 34.8158 11.3985C34.315 11.8993 33.6356 12.1807 32.9274 12.1807C32.219 12.1807 31.5398 11.8993 31.039 11.3985C30.5381 10.8977 30.2567 10.2184 30.2567 9.51008C30.2567 8.80179 30.5381 8.12251 31.039 7.62168C31.5398 7.12084 32.219 6.83947 32.9274 6.83947C33.6356 6.83947 34.315 7.12084 34.8158 7.62168C35.3164 8.12251 35.5979 8.80179 35.5979 9.51008Z" stroke="#1002C9" stroke-width="2" stroke-linejoin="round"/>
</svg>
