<svg width="38" height="38" viewBox="0 0 38 38" fill="none" xmlns="http://www.w3.org/2000/svg">
<g clip-path="url(#clip0_26_897)">
<path d="M18.9629 0.148438C24.084 0.148438 24.7148 0.185547 26.7188 0.259766C28.6855 0.333984 30.0586 0.667969 31.2832 1.15039C32.5449 1.63281 33.584 2.26367 34.623 3.30273C35.6621 4.3418 36.293 5.38086 36.7754 6.64258C37.2578 7.86719 37.5918 9.24023 37.666 11.207C37.7402 13.2109 37.7773 13.8418 37.7773 18.9629C37.7773 24.084 37.7402 24.7148 37.666 26.7188C37.5918 28.6855 37.2578 30.0586 36.7754 31.2832C36.293 32.5449 35.6621 33.584 34.623 34.623C33.584 35.6621 32.5449 36.293 31.2832 36.7754C30.0586 37.2578 28.6855 37.5918 26.7188 37.666C24.7148 37.7402 24.084 37.7773 18.9629 37.7773C13.8418 37.7773 13.2109 37.7402 11.207 37.666C9.24023 37.5918 7.86719 37.2578 6.64258 36.7754C5.38086 36.293 4.3418 35.6621 3.30273 34.623C2.26367 33.584 1.63281 32.5449 1.15039 31.2832C0.667969 30.0586 0.333984 28.6855 0.259766 26.7188C0.185547 24.7148 0.148438 24.084 0.148438 18.9629C0.148438 13.8418 0.185547 13.2109 0.259766 11.207C0.333984 9.24023 0.667969 7.86719 1.15039 6.64258C1.63281 5.38086 2.26367 4.3418 3.30273 3.30273C4.3418 2.26367 5.38086 1.63281 6.64258 1.15039C7.86719 0.667969 9.24023 0.333984 11.207 0.259766C13.2109 0.185547 13.8418 0.148438 18.9629 0.148438ZM18.9629 2.59766C13.6191 2.59766 12.9883 2.63477 10.9102 2.70898C8.98047 2.7832 7.9043 3.1543 7.19922 3.41406C5.38086 4.15625 4.15625 5.38086 3.41406 7.19922C3.1543 7.9043 2.7832 8.98047 2.70898 10.9102C2.63477 12.9883 2.59766 13.6191 2.59766 18.9629C2.59766 24.3066 2.63477 24.9375 2.70898 27.0156C2.7832 28.9453 3.1543 30.0215 3.41406 30.7266C4.15625 32.5449 5.38086 33.7695 7.19922 34.5117C7.9043 34.7715 8.98047 35.1426 10.9102 35.2168C12.9883 35.291 13.6191 35.3281 18.9629 35.3281C24.3066 35.3281 24.9375 35.291 27.0156 35.2168C28.9453 35.1426 30.0215 34.7715 30.7266 34.5117C32.5449 33.7695 33.7695 32.5449 34.5117 30.7266C34.7715 30.0215 35.1426 28.9453 35.2168 27.0156C35.291 24.9375 35.3281 24.3066 35.3281 18.9629C35.3281 13.6191 35.291 12.9883 35.2168 10.9102C35.1426 8.98047 34.7715 7.9043 34.5117 7.19922C33.7695 5.38086 32.5449 4.15625 30.7266 3.41406C30.0215 3.1543 28.9453 2.7832 27.0156 2.70898C24.9375 2.63477 24.3066 2.59766 18.9629 2.59766ZM18.9629 26.4961C23.1191 26.4961 26.4961 23.1191 26.4961 18.9629C26.4961 14.8066 23.1191 11.4297 18.9629 11.4297C14.8066 11.4297 11.4297 14.8066 11.4297 18.9629C11.4297 23.1191 14.8066 26.4961 18.9629 26.4961ZM18.9629 9.31445C24.3066 9.31445 28.6113 13.6191 28.6113 18.9629C28.6113 24.3066 24.3066 28.6113 18.9629 28.6113C13.6191 28.6113 9.31445 24.3066 9.31445 18.9629C9.31445 13.6191 13.6191 9.31445 18.9629 9.31445ZM31.2832 8.94336C31.2832 10.2051 30.2441 11.1699 28.9824 11.1699C27.7207 11.1699 26.7559 10.2051 26.7559 8.94336C26.7559 7.68164 27.7207 6.64258 28.9824 6.64258C30.2441 6.64258 31.2832 7.68164 31.2832 8.94336Z" fill="#1002C9"/>
</g>
<defs>
<clipPath id="clip0_26_897">
<rect width="38" height="38" fill="#F7F2EB"/>
</clipPath>
</defs>
</svg>
