<svg viewBox="0 0 40 40" fill="none" xmlns="http://www.w3.org/2000/svg">
<path d="M31.2627 39.5H31.2626C31.0516 39.5 30.8807 39.3284 30.8807 39.1194V25.7361C30.8807 23.2423 30.2406 21.8545 29.339 21.1154C28.4624 20.3968 27.4547 20.3971 26.9799 20.3972L26.9612 20.3972C25.5473 20.3972 24.4046 20.8436 23.6303 21.7973C22.8719 22.7316 22.532 24.0744 22.532 25.7361V39.1208C22.532 39.3308 22.3615 39.5014 22.1515 39.5014H14.5834C14.3735 39.5014 14.2029 39.3308 14.2029 39.1208V13.625C14.2029 13.415 14.3735 13.2444 14.5834 13.2444H22.1529C22.3628 13.2444 22.5334 13.415 22.5334 13.625V14.575V15.6367L23.3519 14.9604L23.8075 14.5841L23.8077 14.5839C25.5056 13.1794 27.5291 12.4653 29.8418 12.4653C32.7296 12.4653 35.1137 13.3855 36.7776 15.0846L36.7777 15.0846C38.5361 16.8796 39.5001 19.5888 39.5001 22.975V39.1208C39.5001 39.3297 39.3292 39.5013 39.1182 39.5014C39.1182 39.5014 39.1182 39.5014 39.1182 39.5014L31.2627 39.5ZM31.6459 38.2389V38.7389H32.1459H38.2362H38.7362V38.2389V22.975C38.7362 19.9548 37.9496 17.5083 36.4097 15.8123C34.8634 14.1093 32.6179 13.2292 29.8418 13.2292C24.7929 13.2292 22.5997 17.043 22.4923 17.2337L22.4923 17.2336L22.4901 17.2376C22.4217 17.3615 22.2941 17.4361 22.157 17.4361C22.1357 17.4361 22.1037 17.4328 22.056 17.4215C21.8849 17.3773 21.7709 17.2269 21.7709 17.0597V14.5083V14.0083H21.2709H15.4654H14.9654V14.5083V38.2403V38.7403H15.4654H21.2709H21.7709V38.2403V25.7361C21.7709 23.7494 22.2821 22.2279 23.159 21.2107C24.0276 20.2031 25.3034 19.6333 26.9626 19.6333C27.8675 19.6333 29.0227 19.8352 29.9489 20.655C30.8635 21.4644 31.6459 22.958 31.6459 25.7361V38.2389Z" stroke="#1002C9"/>
<path d="M2.02072 38.2389V38.7389H2.52072H8.65267H9.15267V38.2389V14.507V14.007H8.65267H2.52072H2.02072V14.507V38.2389ZM1.63878 39.5C1.42779 39.5 1.25684 39.3284 1.25684 39.1195V13.625C1.25684 13.4161 1.42778 13.2445 1.63878 13.2445H9.53461C9.74458 13.2445 9.91517 13.4151 9.91517 13.625V39.1195C9.91517 39.3294 9.74458 39.5 9.53461 39.5H1.63878Z" stroke="#1002C9"/>
<path d="M9.83611 5.58333V5.583C9.83454 3.20421 7.92042 1.25833 5.55139 1.25833C3.18174 1.25833 1.26389 3.20211 1.26389 5.58333C1.26389 7.96376 3.18233 9.90417 5.55139 9.90417C7.91942 9.90417 9.83611 7.9634 9.83611 5.58333ZM5.55139 10.6653C2.76901 10.6653 0.5 8.38757 0.5 5.58333C0.5 2.77763 2.7691 0.5 5.55139 0.5C8.32895 0.5 10.5972 2.77844 10.5972 5.58472C10.5972 8.3879 8.32927 10.6653 5.55139 10.6653Z" stroke="#1002C9"/>
</svg>
